{
  "accessors": [
    {
      "bufferView": 2,
      "componentType": 5126,
      "count": 25670,
      "max": [
        1.7273093461990356,
        1.3985023498535156,
        2.204881429672241
      ],
      "min": [
        -1.7273093461990356,
        -2.1684978008270264,
        -2.2176449298858643
      ],
      "type": "VEC3"
    },
    {
      "bufferView": 2,
      "byteOffset": 308040,
      "componentType": 5126,
      "count": 25670,
      "max": [
        1.0,
        1.0,
        1.0
      ],
      "min": [
        -1.0,
        -1.0,
        -1.0
      ],
      "type": "VEC3"
    },
    {
      "bufferView": 1,
      "componentType": 5126,
      "count": 25670,
      "max": [
        1.0000001192092896,
        0.999896228313446
      ],
      "min": [
        0.0,
        0.0
      ],
      "type": "VEC2"
    },
    {
      "bufferView": 1,
      "byteOffset": 205360,
      "componentType": 5126,
      "count": 25670,
      "max": [
        0.9912102818489075,
        0.9870715141296387
      ],
      "min": [
        0.0,
        0.0
      ],
      "type": "VEC2"
    },
    {
      "bufferView": 0,
      "componentType": 5125,
      "count": 68958,
      "type": "SCALAR"
    },
    {
      "bufferView": 2,
      "byteOffset": 616080,
      "componentType": 5126,
      "count": 138,
      "max": [
        1.575972557067871,
        1.2425508499145508,
        2.0169548988342285
      ],
      "min": [
        -1.575972557067871,
        -2.008344888687134,
        -2.0285568237304688
      ],
      "type": "VEC3"
    },
    {
      "bufferView": 2,
      "byteOffset": 617736,
      "componentType": 5126,
      "count": 138,
      "max": [
        1.0,
        1.0,
        8.138852081174264e-07
      ],
      "min": [
        -1.0,
        -0.748909056186676,
        -0.6112491488456726
      ],
      "type": "VEC3"
    },
    {
      "bufferView": 1,
      "byteOffset": 410720,
      "componentType": 5126,
      "count": 138,
      "max": [
        0.9595165252685547,
        0.9780946969985962
      ],
      "min": [
        0.0,
        0.0
      ],
      "type": "VEC2"
    },
    {
      "bufferView": 1,
      "byteOffset": 411824,
      "componentType": 5126,
      "count": 138,
      "max": [
        1.1644630432128906,
        1.0918670892715454
      ],
      "min": [
        -0.09186708927154541,
        -0.09186708927154541
      ],
      "type": "VEC2"
    },
    {
      "bufferView": 0,
      "byteOffset": 275832,
      "componentType": 5125,
      "count": 240,
      "type": "SCALAR"
    }
  ],
  "asset": {
    "extras": {
      "author": "toniherold (https://sketchfab.com/toniherold)",
      "license": "CC-BY-4.0 (http://creativecommons.org/licenses/by/4.0/)",
      "source": "https://sketchfab.com/3d-models/star-wars-tie-fighter-ea41fc33dac8490a9b777d4d026382ad",
      "title": "Star Wars TIE-Fighter"
    },
    "generator": "Sketchfab-12.59.0",
    "version": "2.0"
  },
  "bufferViews": [
    {
      "buffer": 0,
      "byteLength": 276792,
      "name": "floatBufferViews",
      "target": 34963
    },
    {
      "buffer": 0,
      "byteLength": 412928,
      "byteOffset": 276792,
      "byteStride": 8,
      "name": "floatBufferViews",
      "target": 34962
    },
    {
      "buffer": 0,
      "byteLength": 619392,
      "byteOffset": 689720,
      "byteStride": 12,
      "name": "floatBufferViews",
      "target": 34962
    }
  ],
  "buffers": [
    {
      "byteLength": 1309112,
      "uri": "t-fighter.bin"
    }
  ],
  "extensionsUsed": [
    "KHR_texture_transform"
  ],
  "images": [
    {
      "uri": "textures/Main_Metal_baseColor.png"
    },
    {
      "uri": "textures/Wings_baseColor.png"
    }
  ],
  "materials": [
    {
      "doubleSided": true,
      "name": "Main_Metal",
      "pbrMetallicRoughness": {
        "baseColorTexture": {
          "index": 0
        },
        "metallicFactor": 0.0,
        "roughnessFactor": 0.8211145618000169
      }
    },
    {
      "doubleSided": true,
      "name": "Wings",
      "pbrMetallicRoughness": {
        "baseColorTexture": {
          "extensions": {
            "KHR_texture_transform": {
              "offset": [
                -0.18698709252817214,
                0
              ],
              "scale": [
                -7.000000000000005,
                -3.199184985612165
              ]
            }
          },
          "index": 1
        },
        "metallicFactor": 0.0,
        "roughnessFactor": 0.8211145618000169
      }
    }
  ],
  "meshes": [
    {
      "name": "Tie-Fighter_Main Metal_0",
      "primitives": [
        {
          "attributes": {
            "NORMAL": 1,
            "POSITION": 0,
            "TEXCOORD_0": 2,
            "TEXCOORD_1": 3
          },
          "indices": 4,
          "material": 0,
          "mode": 4
        }
      ]
    },
    {
      "name": "Tie-Fighter_Wings_0",
      "primitives": [
        {
          "attributes": {
            "NORMAL": 6,
            "POSITION": 5,
            "TEXCOORD_0": 7,
            "TEXCOORD_1": 8
          },
          "indices": 9,
          "material": 1,
          "mode": 4
        }
      ]
    }
  ],
  "nodes": [
    {
      "children": [
        1
      ],
      "matrix": [
        1.0,
        0.0,
        0.0,
        0.0,
        0.0,
        2.220446049250313e-16,
        -1.0,
        0.0,
        0.0,
        1.0,
        2.220446049250313e-16,
        0.0,
        0.0,
        0.0,
        0.0,
        1.0
      ],
      "name": "Sketchfab_model"
    },
    {
      "children": [
        2
      ],
      "matrix": [
        0.009999999776482582,
        0.0,
        0.0,
        0.0,
        0.0,
        0.0,
        0.009999999776482582,
        0.0,
        0.0,
        -0.009999999776482582,
        0.0,
        0.0,
        0.0,
        0.0,
        0.0,
        1.0
      ],
      "name": "2d0d4446fee1490fb8791ff78c17dcc1.fbx"
    },
    {
      "children": [
        3
      ],
      "name": "RootNode"
    },
    {
      "children": [
        4,
        5
      ],
      "matrix": [
        100.0,
        0.0,
        0.0,
        0.0,
        0.0,
        -1.629206793918314e-05,
        -99.99999999999868,
        0.0,
        0.0,
        99.99999999999868,
        -1.629206793918314e-05,
        0.0,
        0.0,
        0.0,
        0.0,
        1.0
      ],
      "name": "Tie-Fighter"
    },
    {
      "mesh": 0,
      "name": "Tie-Fighter_Main Metal_0"
    },
    {
      "mesh": 1,
      "name": "Tie-Fighter_Wings_0"
    }
  ],
  "samplers": [
    {
      "magFilter": 9729,
      "minFilter": 9987,
      "wrapS": 10497,
      "wrapT": 10497
    }
  ],
  "scene": 0,
  "scenes": [
    {
      "name": "Sketchfab_Scene",
      "nodes": [
        0
      ]
    }
  ],
  "textures": [
    {
      "sampler": 0,
      "source": 0
    },
    {
      "sampler": 0,
      "source": 1
    }
  ]
}
